#!OML:ASF H:\Dans Jumps\Project 1\Capture day 1\Session 1\subject.ASF
:FULLY-SPECIFIED
:DEGREES
171
root 0.483011 17.5577 -13.8439 5.6847 -0.91512 -1.38673
lowerback -2.03677 -0.437436 0.100631
upperback 2.84111 -0.658166 1.89611
thorax 4.09004 -0.356452 1.86258
lowerneck -14.3232 0.985509 -1.42554
upperneck 31.2719 2.06738 -0.70653
head 12.7834 0.647057 0.284695
rclavicle 6.16232e-015 -4.37326e-015
rhumerus -25.1986 -20.7933 -77.1761
rradius 22.4905
rwrist 35.6828
rhand -20.6141 -27.379
rfingers 7.12502
rthumb 5.74693 -57.2811
lclavicle 6.16232e-015 -4.37326e-015
lhumerus -21.2505 1.08493 87.9275
lradius 17.2827
lwrist 1.23878
lhand -25.2366 -4.4115
lfingers 7.12502
lthumb 1.28307 25.5644
rfemur -12.9066 -1.99101 19.4727
rtibia 21.8928
rfoot -13.7516 -1.88862
rtoes 9.97516
lfemur -11.2653 7.31731 -18.327
ltibia 19.3093
lfoot -11.8508 4.53225
ltoes 2.91611
172
root 0.482107 17.5579 -13.8449 5.69076 -0.910753 -1.38504
lowerback -2.02932 -0.438962 0.096011
upperback 2.84431 -0.659927 1.89457
thorax 4.08923 -0.357456 1.86352
lowerneck -14.3054 0.991957 -1.40517
upperneck 31.2412 2.07471 -0.721479
head 12.7673 0.65123 0.276256
rclavicle -8.44835e-015 2.18663e-014
rhumerus -25.1913 -20.74 -77.1961
rradius 22.5252
rwrist 35.6344
rhand -20.6291 -27.3627
rfingers 7.12502
rthumb 5.73249 -57.2651
lclavicle -8.44835e-015 2.18663e-014
lhumerus -21.2435 1.09945 87.9276
lradius 17.2833
lwrist 1.23263
lhand -25.2321 -4.3822
lfingers 7.12502
lthumb 1.28737 25.5937
rfemur -12.9178 -2.00533 19.4746
rtibia 21.8929
rfoot -13.7484 -1.87694
rtoes 9.9881
lfemur -11.279 7.31512 -18.3274
ltibia 19.3138
lfoot -11.8455 4.53342
ltoes 2.89122
173
root 0.481115 17.558 -13.8456 5.69668 -0.905396 -1.38412
lowerback -2.02282 -0.441371 0.091353
upperback 2.84753 -0.662868 1.89277
thorax 4.08901 -0.359047 1.86414
lowerneck -14.2924 0.996538 -1.39323
upperneck 31.2145 2.0792 -0.728055
head 12.7536 0.654167 0.272126
rclavicle -1.73937e-015 -1.35174e-014
rhumerus -25.1841 -20.689 -77.2171
rradius 22.5537
rwrist 35.5911
rhand -20.671 -27.3151
rfingers 7.12502
rthumb 5.69204 -57.2187
lclavicle -1.73937e-015 -1.35174e-014
lhumerus -21.2359 1.11341 87.9261
lradius 17.2808
lwrist 1.22443
lhand -25.2072 -4.34996
lfingers 7.12502
lthumb 1.31144 25.6258
rfemur -12.9281 -2.01561 19.4776
rtibia 21.8951
rfoot -13.7456 -1.86923
rtoes 10.0051
lfemur -11.2916 7.31452 -18.3263
ltibia 19.318
lfoot -11.8414 4.53346
ltoes 2.86041
174
root 0.480182 17.558 -13.8462 5.70187 -0.898734 -1.38325
lowerback -2.0155 -0.443577 0.0873204
upperback 2.85003 -0.665525 1.8905
thorax 4.08756 -0.36046 1.86396
lowerneck -14.2787 1.00041 -1.38205
upperneck 31.1892 2.08245 -0.733248
head 12.7404 0.656637 0.268478
rclavicle -8.44835e-016 1.31198e-014
rhumerus -25.1749 -20.6463 -77.2372
rradius 22.579
rwrist 35.5492
rhand -20.6985 -27.2884
rfingers 7.12502
rthumb 5.66541 -57.1927
lclavicle -8.44835e-016 1.31198e-014
lhumerus -21.2283 1.11441 87.9273
lradius 17.2786
lwrist 1.22407
lhand -25.1807 -4.31183
lfingers 7.12502
lthumb 1.33707 25.6637
rfemur -12.9375 -2.02701 19.4804
rtibia 21.8982
rfoot -13.7423 -1.86057
rtoes 10.0199
lfemur -11.3045 7.31298 -18.3253
ltibia 19.324
lfoot -11.8378 4.53397
ltoes 2.82729
175
root 0.47924 17.5579 -13.8467 5.70691 -0.8901 -1.38593
lowerback -2.00897 -0.445676 0.0873694
upperback 2.85188 -0.668221 1.88886
thorax 4.08584 -0.361775 1.86212
lowerneck -14.2698 1.00142 -1.38106
upperneck 31.1707 2.08176 -0.729334
head 12.7307 0.657257 0.26957
rclavicle 4.17448e-015 4.37326e-015
rhumerus -25.1631 -20.6096 -77.2564
rradius 22.597
rwrist 35.5106
rhand -20.7214 -27.2706
rfingers 7.12502
rthumb 5.64331 -57.1754
lclavicle 4.17448e-015 4.37326e-015
lhumerus -21.2207 1.10167 87.9311
lradius 17.2778
lwrist 1.23192
lhand -25.1536 -4.28394
lfingers 7.12502
lthumb 1.36324 25.6915
rfemur -12.9453 -2.03516 19.4871
rtibia 21.9006
rfoot -13.739 -1.85556
rtoes 10.0358
lfemur -11.3188 7.30915 -18.3199
ltibia 19.3338
lfoot -11.8366 4.5339
ltoes 2.79443
176
root 0.478224 17.5578 -13.8472 5.71209 -0.882536 -1.39211
lowerback -2.00353 -0.446218 0.0896258
upperback 2.85476 -0.669005 1.88851
thorax 4.08574 -0.362102 1.86049
lowerneck -14.2729 0.998254 -1.38983
upperneck 31.1624 2.07531 -0.716275
head 12.7277 0.65519 0.275144
rclavicle -2.48481e-016 5.56597e-015
rhumerus -25.1439 -20.5826 -77.274
rradius 22.6055
rwrist 35.4798
rhand -20.7214 -27.2777
rfingers 7.12502
rthumb 5.6433 -57.1826
lclavicle -2.48481e-016 5.56597e-015
lhumerus -21.2083 1.07216 87.9395
lradius 17.2786
lwrist 1.25151
lhand -25.1325 -4.25899
lfingers 7.12502
lthumb 1.38364 25.7163
rfemur -12.9526 -2.03688 19.4978
rtibia 21.9021
rfoot -13.7354 -1.85592
rtoes 10.0489
lfemur -11.3357 7.30387 -18.31
ltibia 19.3491
lfoot -11.8384 4.53507
ltoes 2.77717
177
root 0.477257 17.5576 -13.8477 5.71544 -0.876779 -1.40056
lowerback -1.99626 -0.444737 0.0939799
upperback 2.85819 -0.667174 1.88868
thorax 4.08507 -0.361073 1.85836
lowerneck -14.2814 0.993103 -1.40012
upperneck 31.1606 2.06586 -0.700631
head 12.7284 0.651853 0.281593
rclavicle -2.88238e-015 -5.56597e-015
rhumerus -25.1203 -20.5565 -77.292
rradius 22.6105
rwrist 35.447
rhand -20.7049 -27.3081
rfingers 7.12502
rthumb 5.6593 -57.2125
lclavicle -2.88238e-015 -5.56597e-015
lhumerus -21.1942 1.03127 87.9508
lradius 17.2822
lwrist 1.27567
lhand -25.1219 -4.24145
lfingers 7.12502
lthumb 1.39381 25.7337
rfemur -12.9581 -2.03589 19.5108
rtibia 21.9028
rfoot -13.7327 -1.85779
rtoes 10.0592
lfemur -11.3528 7.29916 -18.2975
ltibia 19.3701
lfoot -11.8436 4.53629
ltoes 2.76701
178
root 0.476361 17.5574 -13.8484 5.71753 -0.871337 -1.41163
lowerback -1.98755 -0.442937 0.101356
upperback 2.86233 -0.665053 1.88939
thorax 4.08428 -0.359818 1.85512
lowerneck -14.2895 0.988948 -1.40571
upperneck 31.1574 2.05751 -0.688174
head 12.7285 0.649159 0.286158
rclavicle -5.76476e-015 2.38542e-015
rhumerus -25.0952 -20.5275 -77.3122
rradius 22.6209
rwrist 35.4131
rhand -20.6743 -27.3545
rfingers 7.12502
rthumb 5.68879 -57.2581
lclavicle -5.76476e-015 2.38542e-015
lhumerus -21.1788 0.988858 87.9617
lradius 17.2882
lwrist 1.29985
lhand -25.1215 -4.23716
lfingers 7.12502
lthumb 1.39424 25.738
rfemur -12.963 -2.03395 19.5263
rtibia 21.9045
rfoot -13.7321 -1.86018
rtoes 10.0708
lfemur -11.371 7.29326 -18.2821
ltibia 19.3956
lfoot -11.8508 4.53763
ltoes 2.77276
